<svg width="22" height="22" viewBox="0 0 22 22" fill="none" xmlns="http://www.w3.org/2000/svg">
<path d="M15.8125 5.5H6.1875C4.72881 5.5 3.32986 6.07946 2.29841 7.11091C1.26696 8.14236 0.6875 9.54131 0.6875 11C0.6875 12.4587 1.26696 13.8576 2.29841 14.8891C3.32986 15.9205 4.72881 16.5 6.1875 16.5H15.8125C17.2712 16.5 18.6701 15.9205 19.7016 14.8891C20.733 13.8576 21.3125 12.4587 21.3125 11C21.3125 9.54131 20.733 8.14236 19.7016 7.11091C18.6701 6.07946 17.2712 5.5 15.8125 5.5ZM15.8125 15.125H6.1875C5.09348 15.125 4.04427 14.6904 3.27068 13.9168C2.4971 13.1432 2.0625 12.094 2.0625 11C2.0625 9.90598 2.4971 8.85677 3.27068 8.08318C4.04427 7.3096 5.09348 6.875 6.1875 6.875H15.8125C16.9065 6.875 17.9557 7.3096 18.7293 8.08318C19.5029 8.85677 19.9375 9.90598 19.9375 11C19.9375 12.094 19.5029 13.1432 18.7293 13.9168C17.9557 14.6904 16.9065 15.125 15.8125 15.125Z" fill="black"/>
<path d="M6.1875 8.25C5.6436 8.25 5.11192 8.41128 4.65968 8.71346C4.20745 9.01563 3.85497 9.44512 3.64683 9.94762C3.43869 10.4501 3.38423 11.0031 3.49034 11.5365C3.59645 12.0699 3.85836 12.5599 4.24296 12.9445C4.62755 13.3291 5.11755 13.5911 5.651 13.6972C6.18445 13.8033 6.73738 13.7488 7.23988 13.5407C7.74238 13.3325 8.17187 12.9801 8.47404 12.5278C8.77622 12.0756 8.9375 11.5439 8.9375 11C8.93668 10.2709 8.64669 9.57191 8.13114 9.05636C7.61559 8.54081 6.91659 8.25082 6.1875 8.25ZM6.1875 12.375C5.91555 12.375 5.64971 12.2944 5.42359 12.1433C5.19747 11.9922 5.02124 11.7774 4.91717 11.5262C4.8131 11.2749 4.78587 10.9985 4.83892 10.7318C4.89198 10.465 5.02293 10.22 5.21523 10.0277C5.40753 9.83543 5.65253 9.70447 5.91925 9.65142C6.18598 9.59837 6.46244 9.62559 6.71369 9.72967C6.96494 9.83374 7.17968 10.01 7.33077 10.2361C7.48186 10.4622 7.5625 10.7281 7.5625 11C7.56209 11.3645 7.41709 11.714 7.15932 11.9718C6.90155 12.2296 6.55205 12.3746 6.1875 12.375Z" fill="black"/>
</svg>
