<svg width="27" height="27" viewBox="0 0 27 27" fill="none" xmlns="http://www.w3.org/2000/svg">
<path d="M12.375 4.5H4.5C3.90326 4.5 3.33097 4.73705 2.90901 5.15901C2.48705 5.58097 2.25 6.15326 2.25 6.75V22.5C2.25 23.0967 2.48705 23.669 2.90901 24.091C3.33097 24.5129 3.90326 24.75 4.5 24.75H20.25C20.8467 24.75 21.419 24.5129 21.841 24.091C22.2629 23.669 22.5 23.0967 22.5 22.5V14.625" stroke="black" stroke-width="1.3" stroke-linecap="round" stroke-linejoin="round"/>
<path d="M20.3125 2.8125C20.7601 2.36494 21.3671 2.11351 22 2.11351C22.6329 2.11351 23.2399 2.36494 23.6875 2.8125C24.1351 3.26005 24.3865 3.86706 24.3865 4.5C24.3865 5.13293 24.1351 5.73994 23.6875 6.1875L13 16.875L8.5 18L9.625 13.5L20.3125 2.8125Z" stroke="black" stroke-width="1.3" stroke-linecap="round" stroke-linejoin="round"/>
</svg>
