<svg width="34" height="34" viewBox="0 0 34 34" fill="none" xmlns="http://www.w3.org/2000/svg">
<path d="M22.667 25.5C23.4184 25.5 24.1391 25.7985 24.6705 26.3299C25.2018 26.8612 25.5003 27.5819 25.5003 28.3333C25.5003 29.0848 25.2018 29.8055 24.6705 30.3368C24.1391 30.8682 23.4184 31.1667 22.667 31.1667C21.9155 31.1667 21.1949 30.8682 20.6635 30.3368C20.1322 29.8055 19.8337 29.0848 19.8337 28.3333C19.8337 27.5819 20.1322 26.8612 20.6635 26.3299C21.1949 25.7985 21.9155 25.5 22.667 25.5ZM22.667 26.9167C22.2913 26.9167 21.9309 27.0659 21.6653 27.3316C21.3996 27.5973 21.2503 27.9576 21.2503 28.3333C21.2503 28.7091 21.3996 29.0694 21.6653 29.3351C21.9309 29.6007 22.2913 29.75 22.667 29.75C23.0427 29.75 23.403 29.6007 23.6687 29.3351C23.9344 29.0694 24.0837 28.7091 24.0837 28.3333C24.0837 27.9576 23.9344 27.5973 23.6687 27.3316C23.403 27.0659 23.0427 26.9167 22.667 26.9167ZM9.91699 25.5C10.6684 25.5 11.3891 25.7985 11.9205 26.3299C12.4518 26.8612 12.7503 27.5819 12.7503 28.3333C12.7503 29.0848 12.4518 29.8055 11.9205 30.3368C11.3891 30.8682 10.6684 31.1667 9.91699 31.1667C9.16554 31.1667 8.44488 30.8682 7.91352 30.3368C7.38217 29.8055 7.08366 29.0848 7.08366 28.3333C7.08366 27.5819 7.38217 26.8612 7.91352 26.3299C8.44488 25.7985 9.16554 25.5 9.91699 25.5ZM9.91699 26.9167C9.54127 26.9167 9.18093 27.0659 8.91526 27.3316C8.64958 27.5973 8.50032 27.9576 8.50032 28.3333C8.50032 28.7091 8.64958 29.0694 8.91526 29.3351C9.18093 29.6007 9.54127 29.75 9.91699 29.75C10.2927 29.75 10.653 29.6007 10.9187 29.3351C11.1844 29.0694 11.3337 28.7091 11.3337 28.3333C11.3337 27.9576 11.1844 27.5973 10.9187 27.3316C10.653 27.0659 10.2927 26.9167 9.91699 26.9167ZM25.5003 8.5H6.05374L9.66199 17H21.2503C21.4706 17.0003 21.6879 16.949 21.8847 16.8501C22.0816 16.7512 22.2525 16.6075 22.3837 16.4305L26.6337 10.7638H26.6351C26.7922 10.5533 26.8876 10.3031 26.9108 10.0414C26.9339 9.77971 26.8838 9.51672 26.7661 9.28185C26.6484 9.04697 26.4676 8.84946 26.2441 8.71139C26.0206 8.57332 25.7631 8.50013 25.5003 8.5ZM21.2503 18.4167H9.72716L8.64199 20.6267L8.50032 21.25C8.50032 21.6257 8.64958 21.9861 8.91526 22.2517C9.18093 22.5174 9.54127 22.6667 9.91699 22.6667H25.5003V24.0833H9.91699C9.42366 24.0836 8.93882 23.955 8.51043 23.7103C8.08205 23.4657 7.72497 23.1134 7.47452 22.6884C7.22408 22.2633 7.08896 21.7803 7.08252 21.287C7.07609 20.7937 7.19856 20.3073 7.43782 19.8758L8.45782 17.7877L3.31249 5.66667H1.41699V4.25H4.25033L5.45307 7.08333H25.5003C26.0356 7.08338 26.56 7.23509 27.0127 7.52088C27.4653 7.80666 27.8277 8.21484 28.058 8.69813C28.2882 9.18141 28.3768 9.72003 28.3135 10.2516C28.2502 10.7832 28.0377 11.2859 27.7004 11.7017L23.5722 17.2068C23.3112 17.5806 22.9638 17.8857 22.5596 18.0964C22.1553 18.307 21.7062 18.4169 21.2503 18.4167Z" fill="black"/>
</svg>
