<svg width="24" height="24" viewBox="0 0 24 24" fill="none" xmlns="http://www.w3.org/2000/svg">
<path d="M4.99642 5H9.99642V10H8.99642V6.493C7.61109 7.07272 6.46914 8.1141 5.76452 9.44027C5.05991 10.7664 4.83608 12.2956 5.13105 13.7681C5.42601 15.2406 6.22159 16.5656 7.38266 17.518C8.54372 18.4705 9.99868 18.9916 11.5004 18.993C13.095 18.9946 14.6346 18.4099 15.8262 17.3502C17.0178 16.2906 17.7783 14.8299 17.963 13.246C18.1477 11.6621 17.7438 10.0656 16.828 8.76015C15.9123 7.45471 14.5486 6.53145 12.9964 6.166V5.142C14.7157 5.49183 16.2579 6.43335 17.3547 7.80274C18.4516 9.17213 19.0336 10.8827 18.9996 12.6369C18.9655 14.3911 18.3176 16.0778 17.1684 17.4036C16.0193 18.7294 14.4417 19.6104 12.7102 19.8933C10.9786 20.1762 9.20272 19.843 7.69141 18.9518C6.1801 18.0606 5.02905 16.6678 4.43854 15.0157C3.84803 13.3635 3.85542 11.5567 4.45944 9.9094C5.06345 8.26215 6.22586 6.87879 7.74442 6H4.99642V5Z" fill="black"/>
</svg>
