<svg width="24" height="24" viewBox="0 0 24 24" fill="none" xmlns="http://www.w3.org/2000/svg">
<path d="M19.706 8.042L17.374 10.374L13.624 6.624L15.956 4.292C16.0488 4.19905 16.159 4.12531 16.2803 4.075C16.4016 4.02469 16.5317 3.99879 16.663 3.99879C16.7944 3.99879 16.9244 4.02469 17.0457 4.075C17.167 4.12531 17.2772 4.19905 17.37 4.292L19.706 6.628C19.799 6.72078 19.8727 6.83099 19.923 6.9523C19.9733 7.07362 19.9992 7.20366 19.9992 7.335C19.9992 7.46633 19.9733 7.59637 19.923 7.71769C19.8727 7.839 19.799 7.94921 19.706 8.042ZM2.99902 17.248L13.064 7.184L16.814 10.934L6.74902 20.998H3.00002V17.248H2.99902ZM16.621 5.044L15.081 6.583L17.418 8.918L18.956 7.379L16.621 5.044ZM15.357 10.979L13.022 8.643L4.00002 17.664V20H6.33602L15.357 10.979Z" fill="black"/>
</svg>
