<svg width="24" height="24" viewBox="0 0 24 24" fill="none" xmlns="http://www.w3.org/2000/svg">
<path d="M11.4996 18C15.4886 18 18.9576 15.776 20.7346 12.5C19.8338 10.8361 18.5001 9.44658 16.8744 8.47842C15.2488 7.51026 13.3917 6.99944 11.4996 7C9.60755 6.99944 7.75048 7.51026 6.12485 8.47842C4.49921 9.44658 3.16546 10.8361 2.26465 12.5C3.16546 14.1639 4.49921 15.5534 6.12485 16.5216C7.75048 17.4897 9.60755 18.0006 11.4996 18ZM11.4996 6C13.6631 5.99928 15.7828 6.60882 17.6154 7.7586C19.448 8.90838 20.919 10.5518 21.8596 12.5C20.919 14.4482 19.448 16.0916 17.6154 17.2414C15.7828 18.3912 13.6631 19.0007 11.4996 19C9.33624 19.0007 7.2165 18.3912 5.38392 17.2414C3.55135 16.0916 2.08026 14.4482 1.13965 12.5C2.08026 10.5518 3.55135 8.90838 5.38392 7.7586C7.2165 6.60882 9.33624 5.99928 11.4996 6ZM11.4996 8C12.6931 8 13.8377 8.47411 14.6816 9.31802C15.5255 10.1619 15.9996 11.3065 15.9996 12.5C15.9996 13.6935 15.5255 14.8381 14.6816 15.682C13.8377 16.5259 12.6931 17 11.4996 17C10.3062 17 9.16158 16.5259 8.31767 15.682C7.47375 14.8381 6.99965 13.6935 6.99965 12.5C6.99965 11.3065 7.47375 10.1619 8.31767 9.31802C9.16158 8.47411 10.3062 8 11.4996 8ZM11.4996 9C10.5714 9 9.68115 9.36875 9.02478 10.0251C8.3684 10.6815 7.99965 11.5717 7.99965 12.5C7.99965 13.4283 8.3684 14.3185 9.02478 14.9749C9.68115 15.6313 10.5714 16 11.4996 16C12.4279 16 13.3181 15.6313 13.9745 14.9749C14.6309 14.3185 14.9996 13.4283 14.9996 12.5C14.9996 11.5717 14.6309 10.6815 13.9745 10.0251C13.3181 9.36875 12.4279 9 11.4996 9Z" fill="black"/>
</svg>
