<svg width="24" height="24" viewBox="0 0 24 24" fill="none" xmlns="http://www.w3.org/2000/svg">
<path d="M2.54265 4.707L3.24965 4L19.9996 20.75L19.2926 21.457L15.9446 18.109C14.5776 18.683 13.0746 19 11.4996 19C9.33624 19.0007 7.2165 18.3912 5.38392 17.2414C3.55135 16.0916 2.08026 14.4482 1.13965 12.5C2.10528 10.5069 3.62359 8.83341 5.51365 7.679L2.54265 4.707ZM11.4996 18C12.7926 18 14.0306 17.766 15.1746 17.339L14.0456 16.211C13.1793 16.8053 12.1323 17.0778 11.0861 16.9812C10.04 16.8846 9.06058 16.425 8.31774 15.682C7.5749 14.939 7.11543 13.9596 7.01898 12.9134C6.92253 11.8672 7.19517 10.8203 7.78965 9.954L6.24365 8.408C4.56617 9.38035 3.18909 10.7962 2.26365 12.5C3.16454 14.1641 4.49845 15.5537 6.12428 16.5218C7.7501 17.49 9.60738 18.0007 11.4996 18ZM20.7346 12.5C19.8338 10.8361 18.5001 9.44658 16.8744 8.47842C15.2488 7.51026 13.3917 6.99944 11.4996 7C10.3767 6.99863 9.26085 7.17758 8.19465 7.53L7.41165 6.748C8.71742 6.25191 10.1028 5.99842 11.4996 6C13.6631 5.99928 15.7828 6.60882 17.6154 7.7586C19.448 8.90838 20.919 10.5518 21.8596 12.5C20.9478 14.3826 19.5417 15.9822 17.7916 17.128L17.0676 16.404C18.6054 15.4397 19.8684 14.0951 20.7346 12.5ZM11.4996 8C12.2887 7.9998 13.0639 8.20707 13.7475 8.60102C14.4312 8.99497 14.9992 9.56175 15.3947 10.2445C15.7902 10.9273 15.9992 11.702 16.0008 12.4911C16.0023 13.2801 15.7964 14.0557 15.4036 14.74L14.6636 14C14.9741 13.3472 15.0749 12.6144 14.952 11.9021C14.8292 11.1898 14.4889 10.533 13.9778 10.0218C13.4667 9.51074 12.8099 9.17041 12.0976 9.0476C11.3853 8.9248 10.6524 9.02554 9.99965 9.336L9.25965 8.596C9.9411 8.20427 10.7136 7.99872 11.4996 8ZM7.99965 12.5C7.9995 13.1217 8.16497 13.7323 8.47905 14.2689C8.79313 14.8055 9.24448 15.2487 9.78667 15.553C10.3289 15.8573 10.9423 16.0117 11.564 16.0003C12.1856 15.9888 12.793 15.812 13.3236 15.488L8.51165 10.676C8.17578 11.225 7.99856 11.8564 7.99965 12.5Z" fill="black"/>
</svg>
