<svg width="34" height="34" viewBox="0 0 34 34" fill="none" xmlns="http://www.w3.org/2000/svg">
<path d="M13.4581 5.66666C15.2198 5.66662 16.9445 6.17194 18.4277 7.12266C19.9108 8.07338 21.0901 9.4296 21.8256 11.0304C22.5612 12.6312 22.822 14.4094 22.5773 16.154C22.3326 17.8987 21.5926 19.5365 20.4451 20.8732L28.4407 28.8688L27.4392 29.8704L19.4421 21.8733C18.3142 22.8378 16.97 23.5154 15.5238 23.8485C14.0777 24.1815 12.5724 24.1601 11.1363 23.786C9.70024 23.412 8.37583 22.6964 7.27589 21.7001C6.17595 20.7039 5.33308 19.4567 4.81905 18.0645C4.30503 16.6724 4.13509 15.1766 4.3237 13.7046C4.51231 12.2327 5.05389 10.8281 5.90231 9.61052C6.75073 8.39295 7.88085 7.39848 9.19643 6.71179C10.512 6.0251 11.9741 5.66654 13.4581 5.66666ZM13.4581 7.08332C11.3916 7.08332 9.40975 7.90423 7.94853 9.36545C6.48731 10.8267 5.6664 12.8085 5.6664 14.875C5.6664 16.9415 6.48731 18.9233 7.94853 20.3845C9.40975 21.8458 11.3916 22.6667 13.4581 22.6667C15.5245 22.6667 17.5064 21.8458 18.9676 20.3845C20.4288 18.9233 21.2497 16.9415 21.2497 14.875C21.2497 12.8085 20.4288 10.8267 18.9676 9.36545C17.5064 7.90423 15.5245 7.08332 13.4581 7.08332Z" fill="black"/>
</svg>
