<svg width="24" height="24" viewBox="0 0 24 24" fill="none" xmlns="http://www.w3.org/2000/svg">
<path d="M4.24355 12.252C3.8152 11.8235 3.4834 11.3084 3.27042 10.7412C3.05743 10.1741 2.96817 9.56789 3.00863 8.96338C3.04908 8.35888 3.21831 7.77001 3.50498 7.23626C3.79164 6.70251 4.18911 6.23622 4.67074 5.86866C5.15236 5.5011 5.707 5.24075 6.29748 5.10509C6.88795 4.96943 7.5006 4.96158 8.09436 5.08207C8.68812 5.20256 9.24925 5.4486 9.74013 5.8037C10.231 6.15881 10.6403 6.61476 10.9405 7.14098H12.0585C12.3588 6.61476 12.7681 6.15881 13.259 5.8037C13.7498 5.4486 14.311 5.20256 14.9047 5.08207C15.4985 4.96158 16.1111 4.96943 16.7016 5.10509C17.2921 5.24075 17.8467 5.5011 18.3284 5.86866C18.81 6.23622 19.2074 6.70251 19.4941 7.23626C19.7808 7.77001 19.95 8.35888 19.9905 8.96338C20.0309 9.56789 19.9417 10.1741 19.7287 10.7412C19.5157 11.3084 19.1839 11.8235 18.7555 12.252L11.4995 19.51L4.24355 12.253V12.252ZM19.4615 12.962C19.9737 12.4498 20.3743 11.8372 20.6382 11.1627C20.9021 10.4882 21.0236 9.76635 20.995 9.04261C20.9664 8.31888 20.7884 7.60888 20.4721 6.95729C20.1558 6.30569 19.7081 5.72659 19.1572 5.2564C18.6062 4.78621 17.964 4.43511 17.2708 4.22518C16.5776 4.01524 15.8484 3.95102 15.1292 4.03655C14.4099 4.12207 13.7162 4.3555 13.0915 4.72214C12.4669 5.08878 11.9249 5.58071 11.4995 6.16698C11.0742 5.58071 10.5322 5.08878 9.90756 4.72214C9.28291 4.3555 8.58915 4.12207 7.86992 4.03655C7.15069 3.95102 6.42154 4.01524 5.72833 4.22518C5.03512 4.43511 4.39284 4.78621 3.8419 5.2564C3.29096 5.72659 2.84327 6.30569 2.52699 6.95729C2.21071 7.60888 2.03268 8.31888 2.00409 9.04261C1.9755 9.76635 2.09698 10.4882 2.36089 11.1627C2.62479 11.8372 3.02541 12.4498 3.53755 12.962L11.4995 20.923L19.4615 12.963V12.962Z" fill="black"/>
</svg>
