<svg width="36" height="36" viewBox="0 0 36 36" fill="none" xmlns="http://www.w3.org/2000/svg">
<path d="M17.2505 10.5C18.245 10.5 19.1988 10.8951 19.9021 11.5984C20.6054 12.3016 21.0005 13.2554 21.0005 14.25C21.0005 15.2446 20.6054 16.1984 19.9021 16.9017C19.1988 17.6049 18.245 18 17.2505 18C16.2559 18 15.3021 17.6049 14.5988 16.9017C13.8955 16.1984 13.5005 15.2446 13.5005 14.25C13.5005 13.2554 13.8955 12.3016 14.5988 11.5984C15.3021 10.8951 16.2559 10.5 17.2505 10.5ZM17.2505 12C16.6537 12 16.0814 12.2371 15.6595 12.659C15.2375 13.081 15.0005 13.6533 15.0005 14.25C15.0005 14.8467 15.2375 15.419 15.6595 15.841C16.0814 16.2629 16.6537 16.5 17.2505 16.5C17.8472 16.5 18.4195 16.2629 18.8414 15.841C19.2634 15.419 19.5005 14.8467 19.5005 14.25C19.5005 13.6533 19.2634 13.081 18.8414 12.659C18.4195 12.2371 17.8472 12 17.2505 12ZM10.2005 18.5355L17.2505 30.1305L24.3005 18.5355C25.0608 17.2845 25.4746 15.8537 25.4993 14.39C25.524 12.9263 25.1588 11.4823 24.4412 10.2064C23.7235 8.9304 22.6793 7.86837 21.4156 7.12927C20.152 6.39018 18.7144 6.00064 17.2505 6.00064C15.7865 6.00064 14.349 6.39018 13.0853 7.12927C11.8216 7.86837 10.7774 8.9304 10.0597 10.2064C9.3421 11.4823 8.9769 12.9263 9.00163 14.39C9.02636 15.8537 9.44012 17.2845 10.2005 18.5355ZM25.5815 19.3155L17.2505 33.018L8.91945 19.3155C8.02114 17.837 7.53237 16.1462 7.50333 14.4164C7.47428 12.6867 7.90599 10.9803 8.75416 9.47252C9.60234 7.96472 10.8364 6.70974 12.3298 5.83637C13.8231 4.963 15.522 4.5027 17.252 4.5027C18.9819 4.5027 20.6808 4.963 22.1741 5.83637C23.6675 6.70974 24.9016 7.96472 25.7497 9.47252C26.5979 10.9803 27.0296 12.6867 27.0006 14.4164C26.9715 16.1462 26.4828 17.837 25.5845 19.3155H25.5815Z" fill="black"/>
</svg>
