<svg width="30" height="30" viewBox="0 0 30 30" fill="none" xmlns="http://www.w3.org/2000/svg">
<path d="M15 5.625C15 5.45924 14.9342 5.30027 14.8169 5.18306C14.6997 5.06585 14.5408 5 14.375 5C14.2092 5 14.0503 5.06585 13.9331 5.18306C13.8158 5.30027 13.75 5.45924 13.75 5.625V7.53375C12.3748 7.68751 11.1045 8.3428 10.182 9.37432C9.25957 10.4058 8.74973 11.7412 8.75 13.125V20.5175L6.7675 22.5H21.9825L20 20.5175V13.125C20.0003 11.7412 19.4904 10.4058 18.568 9.37432C17.6455 8.3428 16.3752 7.68751 15 7.53375V5.625ZM14.375 3.75C14.8723 3.75 15.3492 3.94754 15.7008 4.29917C16.0525 4.65081 16.25 5.12772 16.25 5.625V6.50875C19.1362 7.325 21.25 9.9775 21.25 13.125V20L25 23.75H3.75L7.5 20V13.125C7.5 11.6283 7.98823 10.1725 8.89059 8.97848C9.79295 7.78443 11.0602 6.91733 12.5 6.50875V5.625C12.5 5.12772 12.6975 4.65081 13.0492 4.29917C13.4008 3.94754 13.8777 3.75 14.375 3.75ZM14.375 27.5C13.6546 27.5001 12.9563 27.2514 12.3982 26.7958C11.8401 26.3402 11.4566 25.7059 11.3125 25H12.6062C12.7351 25.3662 12.9744 25.6835 13.2913 25.9079C13.6081 26.1323 13.9868 26.2528 14.375 26.2528C14.7632 26.2528 15.1419 26.1323 15.4587 25.9079C15.7756 25.6835 16.0149 25.3662 16.1438 25H17.4375C17.2934 25.7059 16.9099 26.3402 16.3518 26.7958C15.7937 27.2514 15.0954 27.5001 14.375 27.5Z" fill="black"/>
</svg>
